<svg xmlns="http://www.w3.org/2000/svg" width="520" height="520" viewBox="0 0 520 520" role="img" aria-label="Před a po placeholder">
  <defs><linearGradient id="g" x1="0" y1="0" x2="1" y2="1"><stop stop-color="#f8e8df"/><stop offset=".5" stop-color="#fffaf4"/><stop offset="1" stop-color="#d2a56f"/></linearGradient></defs>
  <rect width="520" height="520" rx="34" fill="url(#g)"/>
  <path d="M260 76v368" stroke="#9f625d" stroke-width="2" opacity=".34"/>
  <path d="M75 260c55-45 111-45 170 0-58 41-115 41-170 0Z" fill="#fffaf4" opacity=".65"/>
  <path d="M284 260c58-62 116-62 174 0-58 47-116 47-174 0Z" fill="#fffaf4" opacity=".78"/>
  <path d="M97 247c41-24 84-24 128 0M307 240c42-32 85-32 129 0" fill="none" stroke="#4c3531" stroke-width="7" stroke-linecap="round" opacity=".76"/>
  <text x="58" y="448" fill="#261f1d" opacity=".62" font-family="Georgia,serif" font-size="35">Před</text>
  <text x="333" y="448" fill="#261f1d" opacity=".62" font-family="Georgia,serif" font-size="35">Po</text>
</svg>
