<svg xmlns="http://www.w3.org/2000/svg" width="760" height="920" viewBox="0 0 760 920" role="img" aria-label="Beauty model placeholder">
  <defs>
    <linearGradient id="bg" x1="0" y1="0" x2="1" y2="1">
      <stop offset="0" stop-color="#fff7ef"/>
      <stop offset=".48" stop-color="#efcfc8"/>
      <stop offset="1" stop-color="#c9a46c"/>
    </linearGradient>
    <radialGradient id="glow" cx=".26" cy=".18" r=".74">
      <stop offset="0" stop-color="#ffffff" stop-opacity=".86"/>
      <stop offset=".58" stop-color="#ffffff" stop-opacity=".1"/>
      <stop offset="1" stop-color="#ffffff" stop-opacity="0"/>
    </radialGradient>
    <filter id="blur"><feGaussianBlur stdDeviation="18"/></filter>
  </defs>
  <rect width="760" height="920" rx="54" fill="url(#bg)"/>
  <circle cx="185" cy="150" r="210" fill="url(#glow)"/>
  <circle cx="642" cy="150" r="130" fill="#fff" opacity=".22" filter="url(#blur)"/>
  <path d="M169 779c44-146 151-220 316-222 80 0 150 25 211 75v288H109c6-52 26-99 60-141Z" fill="#fffaf4" opacity=".48"/>
  <path d="M380 205c91 0 164 73 164 163 0 114-75 217-164 217S216 482 216 368c0-90 73-163 164-163Z" fill="#f7d8cf"/>
  <path d="M239 349c55-111 152-155 285-132 57 55 85 120 84 195-30-65-78-99-143-103-75-5-150 9-226 40Z" fill="#4c3531" opacity=".86"/>
  <path d="M305 433c46 28 98 28 156 0" fill="none" stroke="#9f625d" stroke-width="8" stroke-linecap="round" opacity=".55"/>
  <path d="M314 358c27-13 55-13 84 0M435 358c27-13 55-13 84 0" fill="none" stroke="#4c3531" stroke-width="7" stroke-linecap="round" opacity=".7"/>
  <path d="M382 360c-11 57-22 92-33 105 20 11 42 11 64 0" fill="none" stroke="#b87973" stroke-width="6" stroke-linecap="round" opacity=".54"/>
  <circle cx="243" cy="610" r="11" fill="#fffaf4" opacity=".85"/>
  <circle cx="540" cy="638" r="7" fill="#fffaf4" opacity=".75"/>
  <path d="M103 104c80-34 155-38 224-12" fill="none" stroke="#fffaf4" stroke-width="2" opacity=".7"/>
  <path d="M555 738c54-18 98-49 132-92" fill="none" stroke="#fffaf4" stroke-width="2" opacity=".7"/>
</svg>
